<svg width="24" height="24" viewBox="0 0 24 24" fill="none" xmlns="http://www.w3.org/2000/svg">
<circle cx="12" cy="8" r="2.25" stroke="#222222" stroke-width="1.5" stroke-linecap="round"/>
<path d="M13.9845 6.625C14.1575 6.32525 14.4156 6.08356 14.726 5.93047C15.0364 5.77739 15.3853 5.71979 15.7284 5.76497C16.0716 5.81015 16.3936 5.95607 16.6539 6.18428C16.9141 6.41249 17.1008 6.71274 17.1904 7.04707C17.28 7.38139 17.2684 7.73477 17.1571 8.06252C17.0459 8.39027 16.8399 8.67767 16.5653 8.88837C16.2907 9.09907 15.9598 9.22362 15.6145 9.24625C15.2691 9.26889 14.9247 9.1886 14.625 9.01554" stroke="#222222" stroke-width="1.5"/>
<path d="M10.0155 6.625C9.84249 6.32525 9.58443 6.08356 9.27401 5.93047C8.96358 5.77739 8.61474 5.71979 8.27158 5.76497C7.92842 5.81015 7.60637 5.95607 7.34614 6.18428C7.08592 6.41249 6.89921 6.71274 6.80963 7.04707C6.72005 7.38139 6.73162 7.73477 6.84287 8.06252C6.95413 8.39027 7.16007 8.67767 7.43467 8.88837C7.70926 9.09907 8.04017 9.22362 8.38554 9.24625C8.73092 9.26889 9.07525 9.1886 9.375 9.01554" stroke="#222222" stroke-width="1.5"/>
<path d="M12 12.5C16.0802 12.5 17.1335 15.8022 17.4054 17.507C17.4924 18.0524 17.0523 18.5 16.5 18.5H7.5C6.94771 18.5 6.50763 18.0524 6.59461 17.507C6.86649 15.8022 7.91976 12.5 12 12.5Z" stroke="#222222" stroke-width="1.5" stroke-linecap="round"/>
<path d="M15.5 11.5L15.5 10.75H15.5V11.5ZM19.2959 15.416L20.0234 15.2338L20.0234 15.2338L19.2959 15.416ZM17.1797 16.5L16.4592 16.7085L16.6159 17.25H17.1797V16.5ZM13.0869 12.5859L12.533 12.0802L11.6024 13.0995L12.964 13.3258L13.0869 12.5859ZM15.5 11.5L15.5 12.25C16.4294 12.25 17.0834 12.6982 17.5779 13.3569C18.0883 14.0368 18.3948 14.9051 18.5684 15.5982L19.2959 15.416L20.0234 15.2338C19.8288 14.4565 19.4611 13.3669 18.7775 12.4564C18.078 11.5247 17.0182 10.7501 15.5 10.75L15.5 11.5ZM19.2959 15.416L18.5684 15.5982C18.5748 15.6238 18.5728 15.6393 18.5705 15.6487C18.5679 15.6594 18.5619 15.6729 18.5495 15.6875C18.5241 15.7174 18.4726 15.75 18.3945 15.75V16.5V17.25C19.4053 17.25 20.3019 16.3459 20.0234 15.2338L19.2959 15.416ZM18.3945 16.5V15.75H17.1797V16.5V17.25H18.3945V16.5ZM17.1797 16.5L17.9001 16.2915C17.4168 14.6212 16.1972 12.3425 13.2099 11.8461L13.0869 12.5859L12.964 13.3258C15.1266 13.6852 16.0493 15.2917 16.4592 16.7085L17.1797 16.5ZM13.0869 12.5859L13.6408 13.0916C14.1023 12.5862 14.6926 12.25 15.5 12.25V11.5V10.75C14.2008 10.75 13.2276 11.3195 12.533 12.0802L13.0869 12.5859Z" fill="#222222"/>
<path d="M8.5 11.5V10.75H8.49992L8.5 11.5ZM10.9121 12.5859L11.0352 13.3258L12.3967 13.0992L11.4659 12.0801L10.9121 12.5859ZM6.82031 16.5V17.25H7.38406L7.54076 16.7085L6.82031 16.5ZM4.7041 15.416L3.97657 15.2338L3.97657 15.2338L4.7041 15.416ZM8.5 11.5V12.25C9.30675 12.25 9.89658 12.5862 10.3583 13.0917L10.9121 12.5859L11.4659 12.0801C10.7717 11.3201 9.79919 10.75 8.5 10.75V11.5ZM10.9121 12.5859L10.789 11.8461C7.80259 12.343 6.58313 14.6214 6.09987 16.2915L6.82031 16.5L7.54076 16.7085C7.95066 15.2919 8.87323 13.6855 11.0352 13.3258L10.9121 12.5859ZM6.82031 16.5V15.75H5.60547V16.5V17.25H6.82031V16.5ZM5.60547 16.5V15.75C5.52741 15.75 5.47589 15.7174 5.45051 15.6875C5.43806 15.6729 5.43212 15.6594 5.42949 15.6487C5.42719 15.6393 5.42523 15.6238 5.43164 15.5982L4.7041 15.416L3.97657 15.2338C3.69808 16.3459 4.59472 17.25 5.60547 17.25V16.5ZM4.7041 15.416L5.43163 15.5982C5.60522 14.9051 5.91171 14.0368 6.42212 13.357C6.91667 12.6983 7.57066 12.2501 8.50008 12.25L8.5 11.5L8.49992 10.75C6.98186 10.7502 5.92203 11.5248 5.22257 12.4564C4.53897 13.3669 4.17125 14.4565 3.97657 15.2338L4.7041 15.416Z" fill="#222222"/>
</svg>
