<svg width="100" height="24" viewBox="0 0 100 24" fill="none" xmlns="http://www.w3.org/2000/svg">
<path d="M78.4447 11.3138H77.5505C76.7014 11.3138 76.0871 11.088 75.7077 10.6364C75.3464 10.1847 75.1658 9.66985 75.1658 9.09174C75.1658 8.82076 75.2019 8.54977 75.2742 8.27879C75.3645 8.0078 75.5 7.76391 75.6806 7.54712C75.8794 7.33034 76.1323 7.15871 76.4394 7.03225C76.7465 6.88773 77.1169 6.81546 77.5505 6.81546H78.4447V3.99721C78.4447 3.54557 78.517 3.14812 78.6615 2.80487C78.8241 2.46163 79.0319 2.18161 79.2848 1.96482C79.5377 1.74803 79.8177 1.58544 80.1249 1.47704C80.4501 1.36865 80.7843 1.31445 81.1275 1.31445C81.4708 1.31445 81.796 1.36865 82.1031 1.47704C82.4283 1.58544 82.7173 1.74803 82.9703 1.96482C83.2232 2.18161 83.4219 2.46163 83.5664 2.80487C83.729 3.14812 83.8103 3.54557 83.8103 3.99721V6.81546H85.4092C85.8427 6.81546 86.2041 6.88773 86.4931 7.03225C86.8002 7.15871 87.0441 7.33034 87.2248 7.54712C87.4235 7.76391 87.568 8.0078 87.6584 8.27879C87.7487 8.54977 87.7939 8.82076 87.7939 9.09174C87.7939 9.66985 87.6042 10.1847 87.2248 10.6364C86.8635 11.088 86.2582 11.3138 85.4092 11.3138H83.8103V16.7516C83.8103 17.1671 83.8441 18.4317 84.0067 18.5582C84.1874 18.6846 84.3741 18.8412 84.6089 18.8593C84.8076 18.8773 85.1991 18.7449 85.3617 18.7087C85.5243 18.6545 86.1445 18.5582 86.4155 18.5582C86.8672 18.5582 87.1261 18.5883 87.4694 18.8593C87.8126 19.1303 88.1318 19.612 88.2221 20.0637C88.3486 20.6237 88.2884 21.7377 88.0716 22.1713C87.8728 22.6049 87.361 22.9057 86.8672 23.2252C86.56 23.4239 86.265 23.5684 85.6628 23.6979C85.0606 23.8273 84.627 23.8273 84.1573 23.8273C83.254 23.8273 82.4283 23.5985 81.7237 23.3998C81.0191 23.2011 80.423 22.8849 79.9352 22.4513C79.4474 22.0178 79.077 21.4487 78.8241 20.7441C78.5712 20.0396 78.4447 19.1724 78.4447 18.1427V11.3138Z" fill="url(#paint0_linear_293_2865)"/>
<path d="M17.9124 16.3046C17.9124 17.6776 17.6865 18.8519 17.2349 19.8274C16.7832 20.803 16.169 21.5979 15.3922 22.2121C14.6153 22.8263 13.712 23.278 12.6823 23.567C11.6525 23.8561 10.5595 24.0006 9.40332 24.0006C8.22903 24.0006 7.07281 23.847 5.93466 23.5399C4.81457 23.2509 3.81191 22.7812 2.92668 22.1308C2.05952 21.4624 1.35494 20.6043 0.812966 19.5564C0.270989 18.5086 0 17.244 0 15.7626V9.85515C0 8.3557 0.270989 7.08207 0.812966 6.03425C1.35494 4.98644 2.06855 4.13736 2.95378 3.48699C3.83901 2.83662 4.8507 2.36691 5.98886 2.07786C7.12701 1.77075 8.29226 1.61719 9.48461 1.61719C10.7312 1.61719 11.8693 1.74365 12.8991 1.99657C13.9288 2.24949 14.7057 2.56564 15.2296 2.94502C15.7896 3.34246 16.178 3.83927 16.3948 4.43544C16.6116 5.01354 16.5574 5.59164 16.2322 6.16975C15.9612 6.63946 15.5999 6.97367 15.1483 7.17239C14.6966 7.37112 14.236 7.42531 13.7662 7.33499C13.4591 7.28079 13.1791 7.19949 12.9262 7.0911C12.6913 6.96464 12.4745 6.85624 12.2758 6.76592C11.6435 6.53106 10.7131 6.41363 9.48461 6.41363C9.0149 6.41363 8.54518 6.49493 8.07547 6.65752C7.60575 6.80205 7.18121 7.02787 6.80182 7.33499C6.42244 7.62404 6.11532 8.00342 5.88046 8.47313C5.6456 8.94283 5.52817 9.48481 5.52817 10.099V15.5188C5.52817 16.1511 5.63657 16.7021 5.85336 17.1718C6.07015 17.6234 6.35921 18.0028 6.72053 18.3099C7.09991 18.599 7.51543 18.8248 7.96707 18.9874C8.43679 19.1319 8.91554 19.2042 9.40332 19.2042C9.85496 19.2042 10.2976 19.15 10.7312 19.0416C11.1647 18.9151 11.5441 18.7435 11.8693 18.5267C12.1945 18.2918 12.4565 18.0028 12.6552 17.6595C12.8539 17.2982 12.9533 16.8737 12.9533 16.3859V16.0607C12.9533 15.7897 12.9081 15.6181 12.8178 15.5459C12.7455 15.4736 12.5829 15.4375 12.33 15.4375H11.4357C11.0383 15.4375 10.7041 15.3742 10.4331 15.2478C10.1621 15.1032 9.93626 14.9226 9.7556 14.7058C9.59301 14.489 9.46655 14.2451 9.37622 13.9741C9.30395 13.7032 9.26782 13.4322 9.26782 13.1612C9.26782 12.8902 9.30395 12.6192 9.37622 12.3482C9.46655 12.0592 9.59301 11.8063 9.7556 11.5895C9.93626 11.3546 10.1621 11.1649 10.4331 11.0204C10.7221 10.8759 11.0563 10.8036 11.4357 10.8036H13.9017C14.6966 10.8036 15.356 10.8759 15.88 11.0204C16.4039 11.1469 16.8103 11.3727 17.0994 11.6979C17.4065 12.005 17.6143 12.4205 17.7227 12.9444C17.8491 13.4502 17.9124 14.0825 17.9124 14.8413V16.3046Z" fill="url(#paint1_linear_293_2865)"/>
<path d="M93.9103 18.4033C94.8314 18.4034 95.5452 18.6554 96.051 19.1611C96.5568 19.6489 96.8097 20.3087 96.8098 21.1396C96.8098 21.9707 96.5568 22.6397 96.051 23.1455C95.5452 23.6332 94.8314 23.8769 93.9103 23.877C92.989 23.877 92.2746 23.6333 91.7687 23.1455C91.2629 22.6577 91.0099 21.9887 91.0099 21.1396C91.01 20.2908 91.2631 19.6225 91.7687 19.1348C92.2746 18.647 92.989 18.4033 93.9103 18.4033ZM93.9103 0.111328C94.2533 0.111381 94.5873 0.174453 94.9123 0.300781C95.2554 0.409144 95.5539 0.580679 95.8068 0.81543C96.0778 1.03222 96.2853 1.313 96.4299 1.65625C96.5924 1.9813 96.8038 2.14412 96.9543 2.83301C96.9543 2.83301 97.2421 3.55203 97.6066 4.66992C96.1908 4.80675 95.1476 5.27508 95.1476 5.83301C95.1477 6.4781 96.5423 7.00302 98.2951 7.03418C98.3713 7.33266 98.4466 7.63933 98.5168 7.95215C96.9473 8.023 95.75 8.39471 95.7492 8.84277C95.7492 9.32286 97.1229 9.71428 98.8566 9.74316C99.3405 12.911 99.1505 16.1738 96.674 17.1289C94.6597 17.9057 93.16 17.9057 91.1457 17.1289C85.9227 15.1144 90.9318 2.83301 90.9318 2.83301C91.0823 2.38156 91.218 1.98135 91.3625 1.65625C91.5251 1.313 91.7326 1.03222 91.9855 0.81543C92.2384 0.580646 92.5276 0.409175 92.8527 0.300781C93.196 0.174321 93.549 0.111328 93.9103 0.111328Z" fill="url(#paint2_linear_293_2865)"/>
<path d="M52.0606 5.65251C52.7831 5.45389 53.4876 5.49935 54.1739 5.78825C54.8785 6.07731 55.3761 6.65547 55.6651 7.52263L58.3741 15.8967L61.003 7.49529C61.1295 7.07996 61.3103 6.7369 61.545 6.46599C61.7979 6.17703 62.0779 5.96012 62.3849 5.8156C62.71 5.67107 63.0538 5.58952 63.4151 5.57146C63.7764 5.53536 64.1379 5.5622 64.4991 5.65251C64.8423 5.74285 65.1583 5.90596 65.4474 6.14079C65.7363 6.35753 65.9625 6.62821 66.1251 6.95329C66.2877 7.26041 66.3868 7.60419 66.4229 7.98357C66.459 8.36286 66.396 8.75126 66.2335 9.14861C66.2335 9.14861 65.7486 10.5618 65.0704 12.4758C63.5126 12.5739 62.3275 13.0668 62.3272 13.6613C62.3272 14.1465 63.1169 14.5633 64.254 14.7541C64.125 15.1093 63.992 15.4683 63.8595 15.8283C62.6121 15.9578 61.7258 16.2864 61.7257 16.672C61.7257 16.9929 62.3393 17.2735 63.2638 17.4338C62.3955 19.7287 61.5602 21.7792 61.1114 22.4543C59.9183 24.2486 56.7567 24.3992 55.4747 22.4543C54.1927 20.5092 50.2179 9.12126 50.2179 9.12126C50.0554 8.72394 49.9923 8.34478 50.0284 7.98357C50.0826 7.60419 50.1993 7.26041 50.38 6.95329C50.5606 6.62816 50.796 6.35756 51.0851 6.14079C51.3741 5.92401 51.6993 5.7609 52.0606 5.65251Z" fill="url(#paint3_linear_293_2865)"/>
<path d="M70.8729 6.56348C71.6317 6.56349 72.2821 6.7803 72.8241 7.21387C73.3841 7.64743 73.6639 8.33406 73.6639 9.27344C73.6639 9.27344 78.7578 21.2848 73.6639 23.3105C71.6383 24.1161 70.1075 24.1161 68.0819 23.3105C66.0573 22.5054 65.6441 20.1229 65.8788 17.5439C67.2998 17.4424 68.3487 17.0912 68.3495 16.6719C68.3495 16.2763 67.417 15.9397 66.119 15.8174C66.1792 15.4886 66.245 15.1613 66.3173 14.8389C67.821 14.7251 68.9506 14.2416 68.9511 13.6611C68.9511 13.1614 68.1147 12.7321 66.9227 12.5498C67.4974 10.65 68.0819 9.27344 68.0819 9.27344C68.0819 8.3341 68.3525 7.64744 68.8944 7.21387C69.4545 6.78029 70.1142 6.56348 70.8729 6.56348ZM70.8729 0.412109C71.6317 0.41212 72.2914 0.611354 72.8514 1.00879C73.4112 1.38819 73.6913 2.02031 73.6913 2.90527C73.6913 3.35684 73.6097 3.74516 73.4471 4.07031C73.3027 4.37729 73.1042 4.63042 72.8514 4.8291C72.5986 5.0278 72.3001 5.17236 71.9569 5.2627C71.6137 5.35302 71.2523 5.39843 70.8729 5.39844C70.4935 5.39844 70.1322 5.35302 69.7889 5.2627C69.4457 5.17237 69.1473 5.02782 68.8944 4.8291C68.6416 4.63041 68.4339 4.37733 68.2714 4.07031C68.1269 3.74518 68.0546 3.35681 68.0546 2.90527C68.0546 2.02026 68.3346 1.38818 68.8944 1.00879C69.4545 0.611343 70.1142 0.412109 70.8729 0.412109Z" fill="url(#paint4_linear_293_2865)"/>
<path d="M30.0462 4.92773C30.2448 4.92776 30.4526 4.94632 30.6692 4.98242C30.904 5.0005 31.1209 5.05423 31.3196 5.14453C31.8434 5.36128 32.2317 5.72284 32.4846 6.22852C32.7556 6.73436 32.8455 7.30422 32.7551 7.93652C32.6648 8.56848 32.394 9.07387 31.9426 9.45312C31.5091 9.8325 30.9939 10.0225 30.3977 10.0225H29.7747C29.558 10.0044 29.3503 10.0044 29.1516 10.0225C28.393 10.0766 27.5505 10.2856 27.2493 10.5615C27.0237 10.7683 26.4954 11.2302 26.6858 12.3262C26.7557 12.7282 27.1881 13.833 27.6282 15.1895C26.1226 15.3028 24.9915 15.7891 24.9915 16.3701C24.992 17.0346 26.4721 17.5724 28.2991 17.5732C28.3448 17.775 28.3861 17.9769 28.4241 18.1777C28.384 18.1773 28.3435 18.1768 28.303 18.1768C26.4739 18.1768 24.9915 18.6485 24.9915 19.2305C24.992 19.8123 26.4742 20.2842 28.303 20.2842C28.411 20.2842 28.5179 20.2815 28.6233 20.2783C28.6023 21.0138 28.457 21.6641 28.1214 22.1533C26.4683 24.5621 22.2805 24.7128 20.4739 22.0029C18.6678 19.2923 21.1848 7.6377 21.1848 7.6377C21.1849 7.18618 21.2571 6.79777 21.4016 6.47266C21.5642 6.12952 21.7718 5.84955 22.0247 5.63281C22.2776 5.39799 22.5667 5.22655 22.8919 5.11816C23.217 4.99176 23.56 4.92776 23.9212 4.92773C24.4451 4.92773 24.9334 5.0547 25.385 5.30762C25.8545 5.5605 26.2069 5.9397 26.4417 6.44531C26.9473 5.97581 27.5074 5.60589 28.1214 5.33496C28.7356 5.06398 29.3777 4.92773 30.0462 4.92773Z" fill="url(#paint5_linear_293_2865)"/>
<path d="M42.5706 3.13185C43.1337 1.13097 44.4344 -0.25377 45.4749 0.0390774C46.5152 0.332068 46.9022 2.19166 46.3391 4.1924C46.0703 5.14756 45.6303 5.95972 45.134 6.51857C45.5841 6.71478 45.9975 6.96387 46.3733 7.26857C47.0597 7.79241 47.6018 8.52367 47.9993 9.46291C48.4148 10.4023 48.6223 11.6041 48.6223 13.0674C48.6223 13.0674 49.6716 21.1246 48.6223 22.7686C47.573 24.4124 44.7126 23.6716 44.261 22.958C43.8099 22.2449 44.2609 21.7034 44.1243 21.6309C43.9872 21.5586 42.9861 22.5069 42.2815 22.7959C41.577 23.0849 40.8181 23.2295 40.0051 23.2295H39.4094C38.8494 23.2295 38.2434 23.1387 37.593 22.958C36.9428 22.7954 36.3375 22.5062 35.7776 22.0908C35.2358 21.6754 34.7751 21.1156 34.3958 20.4111C34.0345 19.7067 33.8538 18.8216 33.8538 17.7559C33.8538 16.7261 34.0344 15.8672 34.3958 15.1807C34.7571 14.4943 35.2362 13.9438 35.8323 13.5283C36.4465 13.1129 37.1507 12.8145 37.9456 12.6338C38.7585 12.4531 39.6082 12.3633 40.4934 12.3633H43.2844C43.2664 11.966 43.1847 11.6406 43.0403 11.3877C42.9138 11.1167 42.7331 10.9082 42.4983 10.7637C42.2815 10.6012 42.0192 10.4927 41.7122 10.4385C41.4233 10.3663 41.1163 10.3301 40.7913 10.3301C40.4841 10.3301 40.1858 10.3579 39.8967 10.4121C39.6078 10.4663 39.3009 10.5386 38.9758 10.6289C38.759 10.7012 38.5505 10.7818 38.3518 10.8721C38.1712 10.9624 37.9542 11.0626 37.7014 11.1709C37.4486 11.2972 37.1778 11.3697 36.8889 11.3877C36.6179 11.3877 36.3464 11.3516 36.0754 11.2793C35.8046 11.189 35.5514 11.0527 35.3167 10.8721C35.1001 10.6915 34.9284 10.466 34.802 10.1953C34.5491 9.65336 34.5129 9.1289 34.6936 8.62306C34.8743 8.09918 35.1995 7.65624 35.6692 7.29494C36.0305 7.02398 36.4373 6.79882 36.8889 6.61818C36.9699 6.58578 37.0519 6.55548 37.134 6.52541C36.6568 6.04241 36.2198 5.35714 35.9104 4.54689C35.2015 2.69003 35.4321 0.876988 36.426 0.497085C37.4203 0.117429 38.8018 1.31569 39.511 3.17287C39.8903 4.16639 39.9972 5.14678 39.8655 5.90236C40.3342 5.85536 40.7875 5.83205 41.2249 5.83205C41.6281 5.83205 42.0236 5.85164 42.4114 5.88869C42.245 5.13154 42.284 4.15008 42.5706 3.13185ZM42.7561 16.2832C42.3075 15.9842 40.9676 16.1308 40.9495 16.1328C40.1967 16.2834 39.865 16.4815 39.594 16.7344C39.323 16.9692 39.219 17.295 39.219 17.7285C39.219 18.1801 39.3553 18.5147 39.6262 18.7315C39.8971 18.948 40.2673 19.0566 40.7366 19.0567H41.1165C41.3693 19.0566 41.6224 19.0205 41.8752 18.9483C42.1282 18.876 42.3543 18.7676 42.553 18.6231C42.7696 18.4786 42.9412 18.2977 43.0676 18.0811C43.2121 17.8644 43.2844 17.6112 43.2844 17.3223C43.2844 17.3223 43.2075 16.5844 42.7561 16.2832Z" fill="url(#paint6_linear_293_2865)"/>
<defs>
<linearGradient id="paint0_linear_293_2865" x1="75.1626" y1="23.8219" x2="94.7513" y2="12.3933" gradientUnits="userSpaceOnUse">
<stop stop-color="#8100B3"/>
<stop offset="1" stop-color="#DD00FF"/>
</linearGradient>
<linearGradient id="paint1_linear_293_2865" x1="-0.00436031" y1="23.9952" x2="21.8287" y2="6.50624" gradientUnits="userSpaceOnUse">
<stop stop-color="#8100B3"/>
<stop offset="1" stop-color="#DD00FF"/>
</linearGradient>
<linearGradient id="paint2_linear_293_2865" x1="88.7651" y1="23.8712" x2="106.113" y2="16.344" gradientUnits="userSpaceOnUse">
<stop stop-color="#8100B3"/>
<stop offset="1" stop-color="#DD00FF"/>
</linearGradient>
<linearGradient id="paint3_linear_293_2865" x1="50.0146" y1="23.8526" x2="68.2228" y2="7.52778" gradientUnits="userSpaceOnUse">
<stop stop-color="#8100B3"/>
<stop offset="1" stop-color="#DD00FF"/>
</linearGradient>
<linearGradient id="paint4_linear_293_2865" x1="65.8174" y1="23.909" x2="82.8809" y2="16.5631" gradientUnits="userSpaceOnUse">
<stop stop-color="#8100B3"/>
<stop offset="1" stop-color="#DD00FF"/>
</linearGradient>
<linearGradient id="paint5_linear_293_2865" x1="19.8184" y1="23.993" x2="37.5507" y2="11.9232" gradientUnits="userSpaceOnUse">
<stop stop-color="#8100B3"/>
<stop offset="1" stop-color="#DD00FF"/>
</linearGradient>
<linearGradient id="paint6_linear_293_2865" x1="33.8501" y1="23.7532" x2="55.4401" y2="9.89558" gradientUnits="userSpaceOnUse">
<stop stop-color="#8100B3"/>
<stop offset="1" stop-color="#DD00FF"/>
</linearGradient>
</defs>
</svg>
