<svg width="372" height="91" viewBox="0 0 372 91" fill="none" xmlns="http://www.w3.org/2000/svg">
<path d="M294.526 42.4814H291.169C287.981 42.4814 285.675 41.6335 284.25 39.9378C282.894 38.242 282.215 36.3089 282.215 34.1383C282.215 33.1209 282.351 32.1034 282.622 31.086C282.961 30.0685 283.47 29.1528 284.148 28.3389C284.895 27.5249 285.844 26.8805 286.997 26.4057C288.15 25.8631 289.541 25.5917 291.169 25.5917H294.526V15.0103C294.526 13.3145 294.798 11.8222 295.34 10.5335C295.951 9.24471 296.731 8.19334 297.681 7.37938C298.63 6.56542 299.682 5.95495 300.835 5.54797C302.056 5.14099 303.31 4.9375 304.599 4.9375C305.888 4.9375 307.109 5.14099 308.262 5.54797C309.483 5.95495 310.568 6.56542 311.518 7.37938C312.467 8.19334 313.214 9.24471 313.756 10.5335C314.367 11.8222 314.672 13.3145 314.672 15.0103V25.5917H320.675C322.303 25.5917 323.659 25.8631 324.745 26.4057C325.898 26.8805 326.813 27.5249 327.492 28.3389C328.238 29.1528 328.781 30.0685 329.12 31.086C329.459 32.1034 329.628 33.1209 329.628 34.1383C329.628 36.3089 328.916 38.242 327.492 39.9378C326.135 41.6335 323.863 42.4814 320.675 42.4814H314.672V62.8983C314.672 64.4584 314.799 69.2065 315.409 69.6813C316.088 70.1561 316.789 70.7439 317.67 70.8118C318.417 70.8796 319.886 70.3822 320.497 70.2465C321.107 70.043 323.436 69.6813 324.453 69.6813C326.149 69.6813 327.121 69.7943 328.41 70.8118C329.699 71.8292 330.897 73.638 331.236 75.3338C331.711 77.4365 331.485 81.6194 330.671 83.2473C329.925 84.8752 328.003 86.0044 326.149 87.204C324.996 87.9501 323.888 88.4928 321.627 88.9789C319.366 89.465 317.738 89.465 315.975 89.465C312.583 89.465 309.483 88.6058 306.838 87.8597C304.192 87.1136 301.954 85.9265 300.122 84.2986C298.291 82.6707 296.901 80.5341 295.951 77.8887C295.001 75.2433 294.526 71.9875 294.526 68.1212V42.4814Z" fill="white"/>
<path d="M67.2534 61.2142C67.2534 66.3692 66.4055 70.7782 64.7098 74.441C63.014 78.1038 60.7078 81.0883 57.7911 83.3946C54.8744 85.7008 51.4829 87.3965 47.6166 88.4818C43.7503 89.5671 39.6466 90.1097 35.3055 90.1097C30.8965 90.1097 26.5554 89.5332 22.2821 88.3801C18.0767 87.2948 14.3121 85.5312 10.9884 83.0893C7.73261 80.5796 5.08724 77.3577 3.05235 73.4236C1.01745 69.4894 0 64.7413 0 59.1793V36.9988C0 31.369 1.01745 26.5869 3.05235 22.6528C5.08724 18.7187 7.76653 15.5306 11.0902 13.0888C14.4139 10.6469 18.2123 8.8833 22.4856 7.79803C26.7589 6.64491 31.1339 6.06836 35.6107 6.06836C40.291 6.06836 44.5643 6.54317 48.4306 7.49279C52.2969 8.44241 55.2136 9.62944 57.1806 11.0539C59.2834 12.5461 60.7417 14.4114 61.5557 16.6498C62.3696 18.8204 62.1661 20.991 60.9452 23.1615C59.9277 24.9251 58.5711 26.18 56.8754 26.9261C55.1797 27.6722 53.45 27.8757 51.6864 27.5366C50.5333 27.3331 49.4819 27.0278 48.5323 26.6209C47.6505 26.146 46.8366 25.7391 46.0904 25.3999C43.7164 24.5181 40.2231 24.0772 35.6107 24.0772C33.8471 24.0772 32.0836 24.3825 30.32 24.9929C28.5564 25.5356 26.9624 26.3834 25.538 27.5366C24.1135 28.6218 22.9604 30.0463 22.0786 31.8098C21.1969 33.5734 20.756 35.6083 20.756 37.9145V58.2635C20.756 60.6376 21.1629 62.7064 21.9769 64.47C22.7909 66.1657 23.8761 67.5902 25.2327 68.7433C26.6572 69.8286 28.2173 70.6764 29.913 71.2869C31.6766 71.8296 33.4741 72.1009 35.3055 72.1009C37.0012 72.1009 38.6631 71.8974 40.291 71.4904C41.9189 71.0156 43.3433 70.3712 44.5643 69.5572C45.7852 68.6755 46.7687 67.5902 47.5149 66.3014C48.261 64.9448 48.6341 63.3508 48.6341 61.5194V60.2985C48.6341 59.281 48.4645 58.6366 48.1253 58.3653C47.854 58.094 47.2435 57.9583 46.2939 57.9583H42.9363C41.4441 57.9583 40.1892 57.7209 39.1718 57.2461C38.1543 56.7035 37.3065 56.0252 36.6282 55.2112C36.0177 54.3972 35.5429 53.4815 35.2037 52.4641C34.9324 51.4466 34.7968 50.4292 34.7968 49.4117C34.7968 48.3943 34.9324 47.3768 35.2037 46.3594C35.5429 45.2741 36.0177 44.3245 36.6282 43.5105C37.3065 42.6287 38.1543 41.9165 39.1718 41.3739C40.2571 40.8312 41.5119 40.5599 42.9363 40.5599H52.1951C55.1796 40.5599 57.6554 40.8312 59.6225 41.3739C61.5896 41.8487 63.1157 42.6966 64.201 43.9175C65.3541 45.0706 66.1342 46.6307 66.5412 48.5978C67.016 50.497 67.2534 52.8711 67.2534 55.7199V61.2142Z" fill="white"/>
<path d="M352.592 69.0938C356.051 69.0938 358.731 70.0432 360.63 71.9424C362.529 73.7738 363.479 76.25 363.479 79.3701C363.479 82.4902 362.529 85.0002 360.63 86.8994C358.731 88.7308 356.051 89.6465 352.592 89.6465C349.133 89.6465 346.453 88.7308 344.554 86.8994C342.655 85.068 341.705 82.5581 341.705 79.3701C341.705 76.1822 342.655 73.6722 344.554 71.8408C346.453 70.0095 349.133 69.0938 352.592 69.0938ZM352.592 0.416016C353.881 0.41603 355.136 0.653132 356.357 1.12793C357.645 1.53491 358.764 2.17975 359.714 3.06152C360.731 3.87548 361.511 4.92707 362.054 6.21582C362.664 7.43668 363.455 8.04859 364.021 10.6357C364.021 10.6357 365.104 13.3315 366.472 17.5254C361.156 18.0391 357.238 19.8016 357.238 21.8965C357.239 24.3191 362.478 26.2961 369.062 26.4121C369.347 27.5314 369.625 28.6824 369.889 29.8555C363.995 30.1216 359.501 31.5174 359.5 33.2002C359.5 35.0029 364.657 36.4768 371.167 36.585C372.983 48.4777 372.267 60.7261 362.97 64.3115C355.407 67.228 349.777 67.228 342.214 64.3115C322.603 56.7487 341.411 10.6357 341.411 10.6357C341.976 8.94019 342.485 7.43667 343.027 6.21582C343.638 4.92705 344.419 3.87549 345.368 3.06152C346.318 2.17982 347.403 1.53488 348.624 1.12793C349.913 0.653238 351.235 0.416016 352.592 0.416016Z" fill="white"/>
<path d="M195.465 21.2215C198.178 20.4755 200.823 20.6451 203.401 21.7303C206.046 22.8156 207.912 24.9862 208.997 28.242L219.171 59.6815L229.04 28.1404C229.515 26.5805 230.194 25.2916 231.076 24.2742C232.025 23.189 233.077 22.3745 234.23 21.8318C235.451 21.2892 236.74 20.9837 238.096 20.9158C239.453 20.7802 240.809 20.8824 242.165 21.2215C243.454 21.5606 244.642 22.1708 245.727 23.0526C246.812 23.8665 247.66 24.8843 248.271 26.1053C248.881 27.2583 249.254 28.5471 249.39 29.9715C249.526 31.3959 249.288 32.8542 248.677 34.3465C248.669 34.3701 246.859 39.6666 244.32 46.8328C238.466 47.2 234.014 49.0546 234.013 51.2879C234.013 53.1105 236.978 54.6795 241.25 55.3953C240.767 56.7259 240.274 58.0724 239.778 59.4207C235.087 59.9061 231.753 61.1432 231.752 62.5926C231.752 63.7976 234.057 64.8543 237.53 65.4559C234.27 74.0721 231.133 81.7691 229.448 84.3035C224.968 91.0411 213.098 91.6065 208.285 84.3035C203.475 77.0068 188.572 34.3191 188.546 34.2449C187.936 32.7527 187.699 31.3281 187.834 29.9715C188.038 28.5471 188.478 27.2583 189.157 26.1053C189.835 24.8843 190.717 23.8665 191.802 23.0526C192.887 22.2386 194.109 21.6285 195.465 21.2215Z" fill="white"/>
<path d="M266.099 24.6406C268.947 24.6406 271.39 25.4551 273.425 27.083C275.527 28.7109 276.578 31.2885 276.578 34.8154C276.578 34.8154 295.703 79.9137 276.578 87.5195C268.972 90.5441 263.225 90.5441 255.619 87.5195C248.019 84.497 246.461 75.5534 247.342 65.8721C252.682 65.4913 256.622 64.1675 256.623 62.5918C256.623 61.1062 253.12 59.8445 248.245 59.3857C248.471 58.1514 248.723 56.9236 248.994 55.7129C254.641 55.2858 258.884 53.4673 258.885 51.2871C258.885 49.4114 255.744 47.802 251.27 47.1172C253.428 39.9844 255.619 34.8154 255.619 34.8154C255.619 31.2885 256.636 28.7109 258.671 27.083C260.773 25.4551 263.25 24.6406 266.099 24.6406ZM266.099 1.54492C268.947 1.54492 271.424 2.29094 273.526 3.7832C275.629 5.20762 276.681 7.58175 276.681 10.9053C276.681 12.6009 276.375 14.0594 275.765 15.2803C275.222 16.4332 274.476 17.3828 273.526 18.1289C272.577 18.875 271.457 19.4177 270.169 19.7568C268.88 20.096 267.523 20.2656 266.099 20.2656C264.674 20.2656 263.318 20.0959 262.029 19.7568C260.74 19.4177 259.62 18.875 258.671 18.1289C257.721 17.3828 256.941 16.4332 256.331 15.2803C255.788 14.0594 255.517 12.6009 255.517 10.9053C255.517 7.58183 256.568 5.20763 258.671 3.7832C260.773 2.29096 263.25 1.54494 266.099 1.54492Z" fill="white"/>
<path d="M112.809 18.5039C113.555 18.5039 114.335 18.5714 115.149 18.707C116.031 18.7749 116.845 18.9783 117.591 19.3174C119.558 20.1313 121.017 21.4885 121.966 23.3877C122.984 25.2869 123.323 27.4239 122.984 29.7979C122.645 32.1717 121.627 34.0708 119.931 35.4951C118.303 36.9194 116.37 37.6318 114.132 37.6318H111.791C110.978 37.564 110.198 37.564 109.452 37.6318C106.603 37.8353 103.44 38.6191 102.309 39.6553C101.462 40.4316 99.4781 42.1652 100.193 46.2803C100.455 47.7896 102.084 51.9388 103.737 57.0342C98.082 57.4591 93.8307 59.2807 93.8305 61.4629C93.8305 63.9589 99.392 65.982 106.254 65.9844C106.426 66.7402 106.583 67.4966 106.725 68.249C106.573 68.2473 106.42 68.2451 106.266 68.2451C99.3983 68.2452 93.8305 70.0169 93.8305 72.2021C93.8305 74.3874 99.3983 76.1591 106.266 76.1592C106.675 76.1592 107.08 76.1519 107.479 76.1396C107.4 78.9007 106.846 81.3432 105.585 83.1797C99.379 92.2237 83.6555 92.7888 76.8725 82.6143C70.1025 72.4586 79.5031 28.8429 79.5385 28.6787C79.5385 26.983 79.8103 25.5237 80.353 24.3027C80.9634 23.0143 81.7434 21.9633 82.6928 21.1494C83.6424 20.2676 84.7277 19.6228 85.9487 19.2158C87.1696 18.7411 88.4584 18.5039 89.8149 18.5039C91.7819 18.5039 93.6134 18.9782 95.309 19.9277C97.0725 20.8773 98.395 22.3021 99.2768 24.2012C101.176 22.4376 103.279 21.0477 105.585 20.0303C107.892 19.0129 110.299 18.5039 112.809 18.5039Z" fill="white"/>
<path d="M159.837 11.758C161.951 4.24577 166.832 -0.952551 170.738 0.146662C174.645 1.24619 176.098 8.22784 173.983 15.7404C172.975 19.3218 171.337 22.3758 169.477 24.4738C171.16 25.2095 172.706 26.1477 174.112 27.2883C176.69 29.2552 178.725 32.0025 180.217 35.5295C181.777 39.0566 182.558 43.5676 182.558 49.0617C182.558 49.0617 186.497 79.3133 182.558 85.4865C178.618 91.6587 167.879 88.8785 166.183 86.1994C164.487 83.5203 166.182 81.4847 165.668 81.2131C165.153 80.9417 161.394 84.5027 158.749 85.5881C156.104 86.6733 153.254 87.216 150.202 87.216H147.964C145.861 87.216 143.589 86.8776 141.147 86.1994C138.706 85.5889 136.433 84.5036 134.33 82.9435C132.295 81.3835 130.566 79.2802 129.142 76.6349C127.785 73.9897 127.106 70.666 127.106 66.6642C127.106 62.7979 127.785 59.5758 129.142 56.9982C130.498 54.4207 132.296 52.3513 134.534 50.7912C136.84 49.2313 139.485 48.112 142.47 47.4338C145.522 46.7555 148.711 46.4162 152.034 46.4162H162.514C162.446 44.9242 162.14 43.7036 161.598 42.7541C161.123 41.7366 160.444 40.9559 159.562 40.4133C158.749 39.803 157.765 39.396 156.612 39.1926C155.527 38.9213 154.374 38.7854 153.153 38.7853C152 38.7853 150.881 38.8876 149.796 39.091C148.711 39.2945 147.557 39.5653 146.336 39.9045C145.522 40.1758 144.742 40.4814 143.996 40.8205C143.318 41.1596 142.503 41.5326 141.554 41.9396C140.604 42.4143 139.587 42.6862 138.502 42.7541C137.485 42.7541 136.467 42.6182 135.449 42.3469C134.432 42.0077 133.482 41.4988 132.601 40.8205C131.787 40.1422 131.142 39.294 130.667 38.2765C129.718 36.2419 129.583 34.2752 130.261 32.3762C130.939 30.4091 132.159 28.7464 133.923 27.3898C135.279 26.3724 136.806 25.5252 138.502 24.8469C138.805 24.7255 139.111 24.609 139.419 24.4963C137.629 22.683 135.988 20.1135 134.827 17.0734C132.165 10.1005 133.033 3.29281 136.766 1.86737C140.499 0.441929 145.683 4.93855 148.346 11.9113C149.77 15.6409 150.182 19.3234 149.688 22.1603C151.445 21.9846 153.142 21.8957 154.781 21.8957C156.295 21.8957 157.779 21.9667 159.234 22.1056C158.61 19.2633 158.761 15.5794 159.837 11.758ZM160.529 61.1359C158.841 60.0108 153.794 60.5654 153.747 60.5705C150.921 61.1357 149.677 61.8816 148.659 62.8312C147.642 63.7129 147.252 64.934 147.252 66.5617C147.252 68.2575 147.761 69.5124 148.778 70.3263C149.796 71.1402 151.186 71.548 152.949 71.548H154.374C155.324 71.548 156.273 71.4121 157.223 71.1408C158.172 70.8695 159.02 70.4627 159.767 69.9201C160.58 69.3775 161.224 68.6988 161.699 67.8849C162.242 67.0711 162.514 66.1214 162.514 65.0363C162.514 65.0363 162.225 62.2664 160.529 61.1359Z" fill="white"/>
</svg>
