<svg width="233" height="331" viewBox="0 0 233 331" fill="none" xmlns="http://www.w3.org/2000/svg">
<path d="M86.6677 85.5458C86.6677 83.5889 87.1538 0.189453 48.1277 0.189453C9.1141 0.189453 44.2263 90.9055 53.4874 99.1943C62.7485 107.483 86.6552 85.5333 86.6552 85.5333L86.6677 85.5458Z" fill="url(#paint0_linear_990_5258)"/>
<path d="M77.4442 80.0382C77.4442 78.7419 77.7184 23.2129 55.5567 23.2129C33.3949 23.2129 53.338 83.6154 58.598 89.1372C63.858 94.6589 77.4317 80.0506 77.4317 80.0506L77.4442 80.0382Z" fill="#A45923"/>
<path d="M121.821 85.5458C121.821 83.5889 121.334 0.189453 160.361 0.189453C199.374 0.189453 164.262 90.9055 155.001 99.1943C145.74 107.483 121.833 85.5333 121.833 85.5333L121.821 85.5458Z" fill="url(#paint1_linear_990_5258)"/>
<path d="M131.043 80.0382C131.043 78.7419 130.769 23.2129 152.931 23.2129C175.092 23.2129 155.149 83.6154 149.889 89.1372C144.629 94.6589 131.056 80.0506 131.056 80.0506L131.043 80.0382Z" fill="#A45923"/>
<path d="M31.9904 139.843C31.9904 174.94 64.4705 195.925 104.539 195.925C144.608 195.925 177.088 174.94 177.088 139.843C177.088 104.746 144.608 68.8242 104.539 68.8242C64.4705 68.8242 31.9904 104.746 31.9904 139.843Z" fill="#FFD900"/>
<path d="M121.411 161.407C106.813 161.407 94.9788 148.566 94.9788 132.725C94.9788 116.884 106.813 104.043 121.411 104.043C136.01 104.043 147.844 116.884 147.844 132.725C147.844 148.566 136.01 161.407 121.411 161.407Z" fill="#A45923"/>
<path d="M102.425 130.531C101.629 130.728 101.135 131.528 101.357 132.306C104.78 143.796 114.021 151.307 122.526 149.221C131.031 147.135 135.695 136.23 133.341 124.48C133.182 123.694 132.356 123.201 131.561 123.398L102.425 130.531Z" fill="white"/>
<mask id="mask0_990_5258" style="mask-type:luminance" maskUnits="userSpaceOnUse" x="101" y="123" width="33" height="27">
<path d="M102.425 130.531C101.629 130.728 101.135 131.528 101.357 132.306C104.78 143.796 114.021 151.307 122.526 149.221C131.031 147.135 135.695 136.23 133.341 124.48C133.182 123.694 132.356 123.201 131.561 123.398L102.425 130.531Z" fill="white"/>
</mask>
<g mask="url(#mask0_990_5258)">
<path d="M119.203 146.353C113.343 147.155 107.75 141.645 106.71 134.046C105.67 126.448 109.577 119.637 115.436 118.835C121.296 118.033 126.889 123.543 127.929 131.142C128.97 138.74 125.063 145.551 119.203 146.353Z" fill="#3E3A39"/>
</g>
<path d="M108.995 138.81C107.497 139.015 106.065 137.589 105.796 135.624C105.527 133.66 106.523 131.901 108.021 131.696C109.519 131.49 110.951 132.917 111.22 134.882C111.489 136.846 110.493 138.605 108.995 138.81Z" fill="white"/>
<path d="M41.4578 133.222C40.6771 133.215 40.0282 133.846 40.045 134.63C40.4248 146.24 47.1258 155.523 55.467 155.622C63.8081 155.721 70.7389 146.616 71.4075 135.021C71.4509 134.244 70.8091 133.582 70.0284 133.575L41.4578 133.222Z" fill="white"/>
<mask id="mask1_990_5258" style="mask-type:luminance" maskUnits="userSpaceOnUse" x="40" y="133" width="32" height="23">
<path d="M41.4578 133.222C40.6771 133.215 40.0282 133.846 40.045 134.63C40.4248 146.24 47.1258 155.523 55.467 155.622C63.8081 155.721 70.7389 146.616 71.4075 135.021C71.4509 134.244 70.8091 133.582 70.0284 133.575L41.4578 133.222Z" fill="white"/>
</mask>
<g mask="url(#mask1_990_5258)">
<path d="M53.0982 152.129C58.6914 152.794 63.9362 147.348 64.8129 139.965C65.6895 132.583 61.866 126.06 56.2729 125.396C50.6797 124.732 45.4348 130.178 44.5582 137.56C43.6815 144.942 47.505 151.465 53.0982 152.129Z" fill="#3E3A39"/>
</g>
<path d="M45.5123 142.583C46.9422 142.753 48.2851 141.343 48.5118 139.434C48.7385 137.526 47.7631 135.841 46.3332 135.671C44.9033 135.501 43.5604 136.911 43.3337 138.819C43.1071 140.728 44.0825 142.413 45.5123 142.583Z" fill="white"/>
<path d="M74.7605 149.063C75.2931 153.368 79.0523 156.445 83.1468 155.938C87.2413 155.432 90.1372 151.531 89.6046 147.227C89.0719 142.922 74.2278 144.759 74.7605 149.063Z" fill="#3E3A39"/>
<path d="M99.2626 158.481C99.2626 158.481 92.2248 171.132 83.7881 161.212L82.4534 150.425" stroke="#3E3A39" stroke-width="2" stroke-miterlimit="10" stroke-linecap="round"/>
<path d="M68.3849 162.3C68.3849 162.3 78.2942 172.855 84.0583 161.177L82.7236 150.391" stroke="#3E3A39" stroke-width="2" stroke-miterlimit="10" stroke-linecap="round"/>
<path d="M172.588 148.684H184.961" stroke="#3E3A39" stroke-width="2" stroke-miterlimit="10" stroke-linecap="round"/>
<path d="M170.338 162.182L182.711 163.306" stroke="#3E3A39" stroke-width="2" stroke-miterlimit="10" stroke-linecap="round"/>
<path d="M37.6143 148.684H25.2416" stroke="#3E3A39" stroke-width="2" stroke-miterlimit="10" stroke-linecap="round"/>
<path d="M40.9893 162.182L27.4918 163.306" stroke="#3E3A39" stroke-width="2" stroke-miterlimit="10" stroke-linecap="round"/>
<path d="M12.2908 199.144C14.9903 215.341 40.7854 231.388 53.3455 237.387C60.4692 231.013 70.8922 215.116 55.5951 202.518C40.298 189.921 36.8487 183.397 37.0361 181.71C38.3484 176.461 39.7356 165.4 34.7865 163.151C29.8375 160.901 26.7256 165.213 25.7883 167.65C24.8509 163.338 19.6019 156.964 6.10449 165.963C-7.39295 174.961 4.60477 191.833 12.2908 199.144Z" fill="url(#paint2_linear_990_5258)"/>
<rect x="42.9258" y="186.129" width="38.7253" height="8.74443" rx="4.37221" transform="rotate(150.645 42.9258 186.129)" fill="#D9D9D9"/>
<path d="M181.021 288.267C194.556 254.852 177.472 200.301 167.238 177.203L51.1507 191.61C50.3065 238.718 48.1901 266.117 64.9342 302.674L66.458 314.953C57.0817 316.116 55.5662 326.127 55.9804 330.987L109.001 324.407L106.943 284.993L134.291 281.599L139.092 305.938C124.083 313.041 129.093 321.914 129.093 321.914L184.346 315.057L182.545 300.546L181.021 288.267Z" fill="white"/>
<path d="M184.137 235.744C130.776 253.167 101.79 256.87 51.8642 252.16" stroke="#6D6D6D" stroke-width="3" stroke-linecap="round"/>
<rect width="49.4906" height="8.99829" rx="4.49915" transform="matrix(-0.992387 0.123159 0.123159 0.992387 110.07 296.506)" fill="#D9D9D9"/>
<rect width="49.4906" height="8.99829" rx="4.49915" transform="matrix(-0.992387 0.123159 0.123159 0.992387 182.627 287.502)" fill="#D9D9D9"/>
<path d="M118.564 214.336C118.02 209.951 114.025 206.838 109.64 207.382L61.8012 213.319C57.4528 213.858 54.3476 217.796 54.8364 222.15L56.5331 237.265C56.9732 241.185 60.2053 244.204 64.1471 244.36C83.2724 245.112 96.5394 245.139 115 240.543C118.818 239.593 121.24 235.892 120.755 231.988L118.564 214.336Z" fill="#D9D9D9"/>
<rect width="6.74872" height="22.4957" rx="3.37436" transform="matrix(-0.992387 0.123159 0.123159 0.992387 111.576 212.807)" fill="#55BE24"/>
<rect width="6.74872" height="22.4957" rx="3.37436" transform="matrix(-0.992387 0.123159 0.123159 0.992387 102.646 213.916)" fill="#FFB608"/>
<rect width="6.74872" height="22.4957" rx="3.37436" transform="matrix(-0.992387 0.123159 0.123159 0.992387 93.7168 215.023)" fill="#FF3B2F"/>
<rect width="6.74872" height="6.74872" rx="3.37436" transform="matrix(-0.992387 0.123159 0.123159 0.992387 68.042 218.207)" fill="#1FABFF"/>
<rect width="4.49915" height="4.49915" rx="2.24957" transform="matrix(-0.992387 0.123159 0.123159 0.992387 75.0176 219.609)" fill="#A8A8A8"/>
<rect width="6.74872" height="6.74872" rx="3.37436" transform="matrix(-0.992387 0.123159 0.123159 0.992387 69.1504 227.143)" fill="#1FABFF"/>
<rect width="4.49915" height="4.49915" rx="2.24957" transform="matrix(-0.992387 0.123159 0.123159 0.992387 75.8477 226.309)" fill="#A8A8A8"/>
<rect width="134.974" height="20.2462" rx="10.1231" transform="matrix(-0.992387 0.123159 0.123159 0.992387 176.447 173.791)" fill="#D9D9D9"/>
<ellipse cx="86.6086" cy="83.7966" rx="86.6086" ry="83.7966" transform="matrix(-1 0 0 1 190.587 38.8027)" fill="#97FFF5" fill-opacity="0.2"/>
<ellipse cx="8.0417" cy="23.0581" rx="8.0417" ry="23.0581" transform="matrix(-0.812764 0.582594 0.582594 0.812764 156.97 56.8008)" fill="url(#paint3_radial_990_5258)"/>
<path d="M213.713 224.793C208.316 209.285 180.181 197.826 166.788 194.035C160.844 201.521 153.256 218.95 170.461 228.783C187.666 238.615 192.168 244.462 192.269 246.157C191.862 251.552 192.363 262.688 197.621 264.069C202.879 265.45 205.218 260.675 205.73 258.115C207.382 262.206 213.632 267.601 225.416 256.452C237.199 245.303 222.524 230.701 213.713 224.793Z" fill="url(#paint4_linear_990_5258)"/>
<rect x="185.718" y="242.801" width="38.7253" height="8.74443" rx="4.37221" transform="rotate(-39.0802 185.718 242.801)" fill="#D9D9D9"/>
<defs>
<linearGradient id="paint0_linear_990_5258" x1="58.3984" y1="1.48575" x2="58.3984" y2="102.373" gradientUnits="userSpaceOnUse">
<stop stop-color="#FFD900"/>
<stop offset="0.754808" stop-color="#F8D003"/>
<stop offset="1" stop-color="#A45923"/>
</linearGradient>
<linearGradient id="paint1_linear_990_5258" x1="150.09" y1="1.48575" x2="150.09" y2="102.373" gradientUnits="userSpaceOnUse">
<stop stop-color="#FFD900"/>
<stop offset="0.754808" stop-color="#F8D003"/>
<stop offset="1" stop-color="#A45923"/>
</linearGradient>
<linearGradient id="paint2_linear_990_5258" x1="39.3674" y1="213.204" x2="107.979" y2="213.204" gradientUnits="userSpaceOnUse">
<stop stop-color="white"/>
<stop offset="0.822115" stop-color="#999999"/>
</linearGradient>
<radialGradient id="paint3_radial_990_5258" cx="0" cy="0" r="1" gradientUnits="userSpaceOnUse" gradientTransform="translate(8.0417 23.0581) rotate(90) scale(23.0581 8.0417)">
<stop stop-color="white" stop-opacity="0.8"/>
<stop offset="1" stop-color="white" stop-opacity="0"/>
</radialGradient>
<linearGradient id="paint4_linear_990_5258" x1="184.651" y1="215.509" x2="117.025" y2="227.1" gradientUnits="userSpaceOnUse">
<stop stop-color="white"/>
<stop offset="0.822115" stop-color="#999999"/>
</linearGradient>
</defs>
</svg>
